<?xml version="1.0" standalone="no"?><!DOCTYPE svg PUBLIC "-//W3C//DTD SVG 1.1//EN" "http://www.w3.org/Graphics/SVG/1.1/DTD/svg11.dtd"><svg t="1544417703998" class="icon" style="" viewBox="0 0 1024 1024" version="1.1" xmlns="http://www.w3.org/2000/svg" p-id="1814" xmlns:xlink="http://www.w3.org/1999/xlink" width="200" height="200"><defs><style type="text/css"></style></defs><path d="M512 785.066667c-8.738133 0-17.476267-3.345067-24.1664-9.966933l-341.333333-341.333333C136.738133 423.936 133.802667 409.326933 139.127467 396.561067 144.384 383.7952 156.8768 375.466667 170.666667 375.466667L341.333333 375.466667 341.333333 68.266667c0-18.8416 15.291733-34.133333 34.133333-34.133333l273.066667 0C667.374933 34.133333 682.666667 49.425067 682.666667 68.266667l0 307.2 170.666667 0c13.789867 0 26.282667 8.328533 31.5392 21.0944s2.321067 27.4432-7.3728 37.205333l-341.333333 341.333333C529.476267 781.7216 520.738133 785.066667 512 785.066667zM253.064533 443.733333 512 702.6688 770.935467 443.733333 648.533333 443.733333C629.691733 443.733333 614.4 428.4416 614.4 409.6L614.4 102.4 409.6 102.4 409.6 409.6c0 18.8416-15.291733 34.133333-34.133333 34.133333L253.064533 443.733333zM989.866667 989.866667l-955.733333 0C15.291733 989.866667 0 974.574933 0 955.733333s15.291733-34.133333 34.133333-34.133333l955.733333 0c18.8416 0 34.133333 15.291733 34.133333 34.133333S1008.708267 989.866667 989.866667 989.866667z" p-id="1815" fill="#ffffff"></path></svg>