<?xml version="1.0" standalone="no"?><!DOCTYPE svg PUBLIC "-//W3C//DTD SVG 1.1//EN" "http://www.w3.org/Graphics/SVG/1.1/DTD/svg11.dtd"><svg t="1544417920803" class="icon" style="" viewBox="0 0 1024 1024" version="1.1" xmlns="http://www.w3.org/2000/svg" p-id="3370" xmlns:xlink="http://www.w3.org/1999/xlink" width="200" height="200"><defs><style type="text/css"></style></defs><path d="M757.087463 950.691367l-4.590552 0c-49.568952 0-97.595782-50.066279-97.595782-99.94427l0-41.202401c0-18.844184-6.804986-23.798009-26.03905-23.798009l-4.578272 0c-13.396101 0-38.1069 4.106528-38.1069 23.798009l0 41.202401c0 47.730071-34.750455 99.94427-85.542258 99.94427l-4.577249 0c-52.563146 0-88.562035-53.206806-88.562035-99.94427l0-41.202401c0-22.468734-24.725124-23.798009-35.087123-23.798009L367.830995 785.746688c-17.516956 0-42.805922 6.818289-42.805922 23.798009l0 41.202401c0 47.917336-28.750811 99.94427-80.84426 99.94427l-4.577249 0c-48.267307 0-93.260034-49.15349-93.260034-99.94427L146.343531 387.309116c0-182.588525 152.024415-330.036715 339.659887-330.036715l24.685215 0c185.272657 0 336.64011 147.44819 336.64011 330.036715l0 463.437981C847.32772 897.404744 808.375569 950.691367 757.087463 950.691367zM624.282784 730.767516l4.578272 0c49.582255 0 81.019245 29.502941 81.019245 78.777181l0 41.202401c0 19.247366 23.609721 44.965098 42.61661 44.965098l4.590552 0c16.83134 0 35.262108-23.651676 35.262108-44.965098L792.349571 387.309116c0-154.856927-124.07997-275.05652-281.660938-275.05652l-24.685215 0c-157.327188 0-284.681738 122.777301-284.681738 275.05652l0 463.437981c0 20.080338 20.456914 44.965098 38.281885 44.965098l4.577249 0c16.45681 0 25.866111-26.578332 25.866111-44.965098l0-41.202401c0-51.877531 50.066279-78.777181 97.78407-78.777181l4.577249 0c52.65729 0 90.066295 31.745005 90.066295 78.777181l0 41.202401c0 21.313422 16.95209 44.965098 33.583886 44.965098l4.577249 0c16.85897 0 30.563086-24.697495 30.563086-44.965098l0-41.202401C531.197736 763.264651 569.974901 730.767516 624.282784 730.767516z" p-id="3371" fill="#ffffff"></path><path d="M503.076258 167.231769c-0.159636 0-0.321318 0-0.483001 0-2.925632 0-5.865591-0.630357-8.818853-0.630357-7.597025 0-13.745049-6.375198-13.745049-13.973246s6.147-13.865799 13.745049-13.865799c3.275603 0 6.53688-0.013303 9.770528 0.107447 7.584746 0.254803 13.516852 7.074116 13.262048 14.671141C516.539898 160.949692 510.44611 167.231769 503.076258 167.231769z" p-id="3372" fill="#ffffff"></path><path d="M737.369376 564.728922c-7.597025 0-13.745049-6.147-13.745049-13.745049L723.624327 385.081379c0-100.186793-67.556629-185.017854-167.635975-211.085556-7.342222-1.918699-11.891841-9.422603-9.986445-16.764825 1.906419-7.342222 9.597589-11.744485 16.993023-9.838066 112.373347 29.274744 188.118472 124.790144 188.118472 237.688447l0 165.903517C751.114424 558.582945 744.953098 564.728922 737.369376 564.728922z" p-id="3373" fill="#ffffff"></path><path d="M329.066109 493.723751c-44.268226 0-80.267115-36.012192-80.267115-80.267115 0-44.2539 35.999912-80.267115 80.267115-80.267115 44.254923 0 80.267115 36.013215 80.267115 80.267115C409.333224 457.71156 373.320009 493.723751 329.066109 493.723751zM329.066109 360.678596c-29.100782 0-52.77804 23.677259-52.77804 52.77804s23.678282 52.77804 52.77804 52.77804 52.77804-23.677259 52.77804-52.77804S358.165868 360.678596 329.066109 360.678596z" p-id="3374" fill="#ffffff"></path><path d="M531.599895 493.723751c-44.267203 0-80.267115-36.012192-80.267115-80.267115 0-44.2539 35.999912-80.267115 80.267115-80.267115 44.254923 0 80.267115 36.013215 80.267115 80.267115C611.868033 457.71156 575.854818 493.723751 531.599895 493.723751zM531.599895 360.678596c-29.100782 0-52.77804 23.677259-52.77804 52.77804s23.677259 52.77804 52.77804 52.77804 52.77804-23.677259 52.77804-52.77804S560.700677 360.678596 531.599895 360.678596z" p-id="3375" fill="#ffffff"></path></svg>