<?xml version="1.0" standalone="no"?><!DOCTYPE svg PUBLIC "-//W3C//DTD SVG 1.1//EN" "http://www.w3.org/Graphics/SVG/1.1/DTD/svg11.dtd"><svg t="1543405168342" class="icon" style="" viewBox="0 0 1024 1024" version="1.1" xmlns="http://www.w3.org/2000/svg" p-id="5888" xmlns:xlink="http://www.w3.org/1999/xlink" width="200" height="200"><defs><style type="text/css"></style></defs><path d="M213.472 592.608a16 16 0 0 1-11.6-4.976L122.704 504.48c-73.808-73.824-73.808-194.384 0.288-268.496l73.088-73.104c74.128-74.112 194.688-74.096 268.784 0l42.784 45.728a16 16 0 0 1-23.376 21.872l-42.4-45.344c-61.28-61.264-161.568-61.232-223.152 0.384l-73.088 73.104c-61.632 61.632-61.632 161.904 0 223.536l79.456 83.44a16 16 0 0 1-11.616 27.008z" fill="#ff7f50" p-id="5889"></path><path d="M838.464 564.048a16.032 16.032 0 0 1-11.68-26.944l51.232-54.608c61.984-62 61.984-162.272 0.352-223.904l-73.104-73.104c-61.632-61.632-161.904-61.632-223.536 0L390.464 386.432c4.912 5.072 12.48 10.928 22.8 13.136 17.904 3.872 39.296-3.616 63.744-22.096l87.056-77.008a16 16 0 0 1 20.64-0.464c3.84 3.04 96.272 74.112 218.08-20.4a16 16 0 1 1 19.616 25.28c-116.336 90.24-213.904 47.024-246.336 27.664l-78.832 69.68c-33.424 25.328-63.856 34.688-91.36 28.496-34.24-7.664-49.872-36.864-50.512-38.112a16 16 0 0 1 2.576-18.448l200.896-210.992c74.384-74.384 194.96-74.4 269.056-0.288l73.104 73.104c74.096 74.112 74.096 194.672 0 268.784l-50.88 54.24a15.888 15.888 0 0 1-11.648 5.04zM335.04 779.296c-18.768 0-37.904-8.352-52.48-22.944-12.752-12.752-20.784-28.912-22.576-45.504-1.92-17.648 3.584-34.368 15.088-45.872l135.76-135.76c9.984-9.984 23.792-15.472 38.896-15.472 18.768 0 37.904 8.368 52.496 22.96 27.248 27.248 30.608 68.24 7.472 91.376l-135.76 135.76c-10 9.952-23.808 15.456-38.896 15.456z m114.688-233.584c-4.64 0-11.216 1.056-16.272 6.096l-135.76 135.76c-6.336 6.336-6.416 15.104-5.904 19.792 1.008 9.232 5.888 18.832 13.392 26.336 8.496 8.496 19.664 13.568 29.856 13.568 4.64 0 11.216-1.056 16.272-6.096l135.76-135.76c10.464-10.48 7.056-31.6-7.472-46.128-8.496-8.48-19.68-13.568-29.872-13.568z" fill="#ff7f50" p-id="5890"></path><path d="M252.752 704.992c-18.768 0-37.904-8.352-52.48-22.944-27.248-27.264-30.592-68.256-7.472-91.376l101.824-101.824c9.984-9.984 23.792-15.472 38.896-15.472 18.768 0 37.904 8.352 52.48 22.944 27.248 27.264 30.592 68.256 7.472 91.376l-101.824 101.824c-9.984 9.968-23.808 15.472-38.896 15.472z m80.768-199.632c-4.64 0-11.216 1.056-16.272 6.096l-101.824 101.824c-10.464 10.48-7.04 31.6 7.472 46.128 8.496 8.496 19.664 13.568 29.856 13.568 4.64 0 11.216-1.056 16.272-6.096l101.824-101.824c10.464-10.48 7.04-31.6-7.472-46.128-8.496-8.496-19.648-13.568-29.856-13.568zM408.608 860.336c-18.768 0-37.904-8.352-52.48-22.944-12.752-12.752-20.768-28.912-22.576-45.504-1.904-17.648 3.6-34.368 15.104-45.888l101.808-101.808c9.968-9.984 23.792-15.488 38.896-15.488 18.768 0 37.904 8.368 52.496 22.944 12.752 12.752 20.768 28.928 22.56 45.52 1.92 17.648-3.584 34.368-15.088 45.872l-101.824 101.824c-9.984 9.984-23.792 15.472-38.896 15.472z m80.752-199.632c-4.64 0-11.216 1.056-16.272 6.112l-101.808 101.824c-6.336 6.336-6.416 15.104-5.92 19.792 1.008 9.232 5.888 18.832 13.392 26.336 8.496 8.496 19.664 13.568 29.856 13.568 4.64 0 11.216-1.056 16.272-6.096l101.824-101.824c6.336-6.336 6.416-15.12 5.904-19.792-1.008-9.248-5.872-18.848-13.376-26.336-8.496-8.512-19.664-13.584-29.872-13.584zM775.712 807.248c-14.64 0-28.512-5.04-38.848-15.376a15.984 15.984 0 1 1 22.624-22.624c10.48 10.48 31.632 7.04 46.144-7.472s17.936-35.648 7.472-46.128a15.984 15.984 0 1 1 22.624-22.624c23.136 23.136 19.776 64.128-7.472 91.376-15.104 15.088-34.4 22.848-52.544 22.848z" fill="#ff7f50" p-id="5891"></path><path d="M851.824 731.136c-14.624 0-28.512-5.056-38.848-15.376l-117.824-117.824a15.984 15.984 0 1 1 22.624-22.624l117.824 117.824c10.464 10.464 31.584 7.024 46.128-7.472 7.504-7.504 12.384-17.104 13.392-26.336 0.512-4.672 0.416-13.456-5.904-19.792l-129.536-121.2a16 16 0 1 1 21.872-23.36l129.904 121.568c11.888 11.872 17.392 28.608 15.472 46.24-1.792 16.592-9.824 32.752-22.576 45.504-15.072 15.072-34.368 22.832-52.528 22.848zM711.456 467.28a15.968 15.968 0 0 1-10.944-4.32l-60.368-56.512a16.016 16.016 0 0 1 21.872-23.36l60.368 56.512a16.016 16.016 0 0 1-10.928 27.68zM700.784 882.432c-15.056 0-29.008-5.456-39.008-15.472l-117.824-117.824a15.984 15.984 0 1 1 22.624-22.624l117.824 117.824c6.336 6.336 15.168 6.384 19.776 5.904 9.248-1.008 18.848-5.888 26.336-13.376 14.528-14.528 17.936-35.648 7.472-46.128l-117.808-117.824a15.984 15.984 0 1 1 22.624-22.624l117.808 117.824c23.136 23.136 19.776 64.128-7.472 91.376-12.752 12.752-28.912 20.768-45.504 22.576a61.584 61.584 0 0 1-6.848 0.368z" fill="#ff7f50" p-id="5892"></path><path d="M489.008 935.088c-18.768 0-37.904-8.368-52.48-22.96-12.752-12.736-20.784-28.912-22.576-45.504-1.92-17.648 3.584-34.368 15.088-45.872l67.888-67.888c9.984-9.984 23.792-15.472 38.896-15.472 18.768 0 37.904 8.352 52.48 22.944 27.248 27.264 30.592 68.256 7.472 91.376l-67.872 67.888c-10 10-23.808 15.488-38.896 15.488z m46.8-165.68c-4.64 0-11.216 1.056-16.272 6.096l-67.888 67.888c-6.336 6.336-6.416 15.104-5.904 19.776 1.008 9.248 5.888 18.832 13.392 26.336 8.496 8.512 19.664 13.584 29.856 13.584 4.64 0 11.216-1.056 16.272-6.096l67.872-67.888c10.464-10.48 7.04-31.6-7.472-46.128-8.496-8.496-19.648-13.568-29.856-13.568z" fill="#ff7f50" p-id="5893"></path></svg>