<?xml version="1.0" standalone="no"?><!DOCTYPE svg PUBLIC "-//W3C//DTD SVG 1.1//EN" "http://www.w3.org/Graphics/SVG/1.1/DTD/svg11.dtd"><svg t="1544343081005" class="icon" style="" viewBox="0 0 1024 1024" version="1.1" xmlns="http://www.w3.org/2000/svg" p-id="2913" xmlns:xlink="http://www.w3.org/1999/xlink" width="200" height="200"><defs><style type="text/css"></style></defs><path d="M949.702179 267.410754c0-27.222067-22.105137-49.429542-49.429542-49.429542L121.06656 217.981211C93.742155 217.981211 71.637018 240.086348 71.637018 267.410754l0 492.760344c0 27.222067 22.105137 49.429542 49.429542 49.429542l779.308415 0c27.222067 0 49.429542-22.105137 49.429542-49.429542L949.804517 267.410754zM548.534879 554.368179l-0.204677 0.204677c-20.058365 18.420947-51.476314 18.420947-71.432341-0.102339L152.893864 263.010194l721.180092 0L548.534879 554.368179zM366.065161 515.786528 116.666 736.530881 116.666 291.460324 366.065161 515.786528zM400.246252 546.078753l46.154707 41.344793c18.113932 16.681191 41.54947 25.584649 66.110734 25.584649 0 0 0.102339 0 0.102339 0 24.561263 0 47.996802-8.903458 66.008395-25.482311l48.917849-43.698581L876.632421 764.469318 153.507895 764.469318 400.246252 546.078753zM660.902658 513.739756 904.673196 295.656206l0 433.915651L660.902658 513.739756z" p-id="2914"></path></svg>