<?xml version="1.0" standalone="no"?><!DOCTYPE svg PUBLIC "-//W3C//DTD SVG 1.1//EN" "http://www.w3.org/Graphics/SVG/1.1/DTD/svg11.dtd"><svg t="1544343013565" class="icon" style="" viewBox="0 0 1024 1024" version="1.1" xmlns="http://www.w3.org/2000/svg" p-id="1871" xmlns:xlink="http://www.w3.org/1999/xlink" width="200" height="200"><defs><style type="text/css"></style></defs><path d="M919.174048 520.377808c-9.901511-14.57802-30.464849-32.293497-72.66088-32.293497l-49.230238 0c0.791016-31.256888-1.281179-51.822272-1.281179-51.822272L113.370559 436.262038c0 0-14.046924 131.00059 44.294832 233.880725 36.71111 64.041572 58.858526 82.561367 90.361007 114.335025 52.885488 53.104475 116.435872 53.104475 116.435872 53.104475l179.168636 0c0 0 63.550385 0 115.644857-51.54905 11.972683-12.246929 23.156396-22.39301 34.092469-34.393321 179.712011-9.900487 225.289046-135.419226 230.771921-152.083767C927.520133 590.44563 940.012655 551.634696 919.174048 520.377808L919.174048 520.377808 919.174048 520.377808zM867.107205 577.927525l-1.065262 3.136433c-0.243547 0.789992-22.664186 75.523067-121.617895 101.570303 2.346441-3.900843 4.690836-8.073886 7.28287-12.491499 22.147416-39.330774 33.875528-82.560344 39.848567-121.126708l54.956659 0c14.592346 0 20.837584 3.409656 22.147416 5.209652C871.524818 558.39875 869.94381 570.372455 867.107205 577.927525L867.107205 577.927525 867.107205 577.927525zM867.107205 577.927525" p-id="1872"></path><path d="M813.347814 882.421494 97.551268 882.421494c-43.093471 46.612621 237.944274 76.287477 237.944274 76.287477l239.854786 0C575.350328 958.708971 848.014358 930.125983 813.347814 882.421494" p-id="1873"></path><path d="M518.372639 380.526643c0.791016 2.605338-7.827269 5.728468-10.664897 4.677533-86.243223-54.16769-65.405639-129.690758-9.137101-184.895057 42.985-41.935088 75.005274-63.032592 75.277474-129.446187-0.273223-5.987365 12.737092-6.764054 14.83794-4.15974C694.676018 216.97366 457.167672 224.787626 518.372639 380.526643" p-id="1874"></path><path d="M362.879216 380.526643c1.036609 2.605338-7.52744 5.728468-10.419304 4.677533-86.187965-54.16769-65.62258-129.690758-9.109472-184.895057 42.711777-41.935088 74.732052-63.032592 75.005274-129.446187 0-5.987365 13.036921-6.764054 15.110139-4.15974C539.45684 216.97366 301.675272 224.787626 362.879216 380.526643" p-id="1875"></path></svg>