<?xml version="1.0" standalone="no"?><!DOCTYPE svg PUBLIC "-//W3C//DTD SVG 1.1//EN" "http://www.w3.org/Graphics/SVG/1.1/DTD/svg11.dtd"><svg t="1543405272254" class="icon" style="" viewBox="0 0 1024 1024" version="1.1" xmlns="http://www.w3.org/2000/svg" p-id="10092" xmlns:xlink="http://www.w3.org/1999/xlink" width="200" height="200"><defs><style type="text/css"></style></defs><path d="M164.7 526.7L86 489.8c-1.9-0.9-2.8-3.2-1.9-5.1l138.8-295.9c0.9-1.9 3.2-2.8 5.1-1.9l78.7 36.9c1.9 0.9 2.8 3.2 1.9 5.1l-138.8 296c-0.9 1.9-3.2 2.7-5.1 1.8zM937.9 494.2L858 528.7c-2 0.8-4.2-0.1-5.1-2L729 239.3c-0.8-2 0.1-4.2 2-5.1l79.9-34.5c2-0.8 4.2 0.1 5.1 2L940 489c0.8 2.1-0.1 4.3-2.1 5.2zM804.5 576.1c-3-8.9 5.9-24 9.9-40.4 3.9-16.4-106.2-253.1-107.5-255.7-1.3-2.6-70.5-9.2-104-22s-85.3-25.6-143.5 15.3l-136.7 0.5-15.4 41.1h82.2s-24 30.6-24 60.5-13.8 65.7-14.8 79.9c-1 14.1 14.1 39.4 49.3 31.2 35.2-8.2 62.8-37.5 69.7-64.4 6.9-27 18.1-51.3 40.1-51.9 22-0.7 32.2-2.3 64.1 30.6 31.9 32.9 187.7 175.2 202.8 188.4 15.1 13.1 11.8 40.4 4.3 51.3s-30.6 13.5-53.6-3.6S590.5 531.8 584.7 526s-18.3-3.6-21.9 0.7c-3.3 4-4.9 14.5 4.4 22.7s144.2 110.7 150.6 117.1c6.4 6.4 10.8 30.6 2.3 40.1s-27.3 8.5-43.1-3.9c-15.8-12.5-117.8-89.6-124.9-96.6-7.1-7.1-18.1-4.2-21.8 0.6-3 3.9-8.4 12.9 7.4 25.1 15.8 12.2 107.2 81.8 115.4 90.1 8.2 8.2 9.5 27 2 36.2-7.6 9.2-26 7.2-41.1-2-15.1-9.2-93.3-68.7-102-75.9-8.8-7.2-17.5-1.3-19.1 0.7-1.6 2-9.4 12.5 4.8 23.3 14.1 10.8 63.4 51 68.4 54.6 4.9 3.6 4.3 17.4-3.6 23.7-7.9 6.2-25 7.2-43.7-9.9-14-12.7-39.8-32.8-52-42.2 1-11.5-3.8-23.3-13.9-30.5l-4.2-3c-8.7-6.3-19.4-7.8-29-5l-14.8-13.5c3.1-13.4-1.9-27.9-13.7-36.4l-3.3-2.3c-9.3-6.7-20.8-8.1-31-5l-12.6-11.4c7.3-17.1 2.2-37.6-13.6-48.9l-2.6-1.9c-11.7-8.4-26.4-9.6-38.8-4.6l-56.1-77-15.1 32.9 47.8 65.9-33.1 46c-13.1 18.2-8.9 43.5 9.2 56.5l2.6 1.9c17.6 12.7 41.9 9.1 55.3-7.7 1 4.1 2.1 7.8 3.3 11.1-8.8 15.4-4.7 35.3 10.1 45.9l3.3 2.3c13.2 9.5 30.7 8.5 42.7-1.3 3.4 1.8 6.8 3.5 10.2 5-9.8 15-6.2 35.3 8.6 45.9l4.2 3c15.2 10.9 36.3 7.4 47.2-7.7l2.9-4c2.4 2.9 4.6 5.6 6.7 8.1v6.7c0 20.2 16.4 36.6 36.6 36.6 17 0 31.3-11.7 35.4-27.4 8.2 2.4 34.2 9.1 52 4.1 21.4-5.9 29.6-28.9 32.5-31.2 3-2.3 23.3 19.1 45 13.8 21.7-5.3 44-9.9 47.3-54.6 0 0 37.1 0.3 51.3-13.5 14.1-13.8 15.8-28.3 16.8-49.3 0 0 22.4 1.6 41.4-16.4 19.1-18.1 18.1-28.3 19.7-44 1.2-16.4-9.7-34.5-12.6-43.4z" fill="#666666" p-id="10093"></path></svg>