<?xml version="1.0" standalone="no"?><!DOCTYPE svg PUBLIC "-//W3C//DTD SVG 1.1//EN" "http://www.w3.org/Graphics/SVG/1.1/DTD/svg11.dtd"><svg t="1543400329808" class="icon" style="" viewBox="0 0 1024 1024" version="1.1" xmlns="http://www.w3.org/2000/svg" p-id="1839" xmlns:xlink="http://www.w3.org/1999/xlink" width="200" height="200"><defs><style type="text/css"></style></defs><path d="M785.513828 821.286754c-70.055313-56.640466-131.167394-144.582242-131.167394-144.582242l-10.43377 8.943232c19.377001 26.829694 78.998544 102.847162 126.695779 141.601164 49.187773 38.754003 96.885007 73.03639 111.790393 84.960699 14.905386 13.414847 8.943231 20.86754 4.471615 29.810771-7.452693 17.886463 14.905386 26.829694 22.358079 5.962155 1.490539-4.471616 2.981077-10.43377 2.981077-17.886463-2.981077-28.320233-56.640466-52.16885-126.695779-108.809316z" fill="#ff7f50" p-id="1840"></path><path d="M645.403202 666.270742c58.131004-13.414847 92.413392 8.943231 125.205241 14.905386-2.981077-8.943231-16.395924-22.358079-8.943232-25.339156 29.810771-10.43377 62.60262-4.471616 93.90393-7.452693-5.962154-5.962154-23.848617-13.414847-17.886463-19.377001 11.924309-11.924309 32.791849-8.943231 49.187773-13.414847-2.981077-2.981077-10.43377-8.943231-7.452693-10.43377 22.358079-10.43377 47.697234-11.924309 71.545852-17.886463-22.358079-4.471616-44.716157-4.471616-65.583697-13.414847-2.981077-1.490539 2.981077-7.452693 4.471615-10.43377-34.282387-4.471616-67.074236 1.490539-101.356623-14.905386 1.490539-28.320233 56.640466-58.131004 83.470161-86.451237-4.471616 0-14.905386 2.981077-13.414848-1.490539 14.905386-25.339156 35.772926-47.697234 53.659389-71.545851-31.30131 2.981077-61.112082 4.471616-92.413392 7.452693 11.924309-34.282387 25.339156-67.074236 37.263465-101.356623-10.43377 0-31.30131 11.924309-32.791849 1.490538-5.962154-23.848617 10.43377-47.697234 16.395924-71.545851-5.962154 0-16.395924 7.452693-17.886462 1.490538-2.981077-13.414847 4.471616-28.320233 7.452692-41.73508-4.471616 0-10.43377 1.490539-11.924308-2.981077-2.981077-22.358079 1.490539-46.206696 1.490538-70.055313-16.395924 22.358079-29.810771 47.697234-49.187772 67.074236-2.981077 2.981077-7.452693-4.471616-10.433771-7.452693-8.943231 14.905386-11.924309 35.772926-26.829694 46.206696-5.962154 4.471616-10.43377-8.943231-14.905386-14.905386-13.414847 31.30131-20.86754 64.093159-40.244541 92.413392-4.471616 5.962154-11.924309-11.924309-13.414847-14.905386-2.981077-2.981077-4.471616 98.375546-40.244542 132.657933-50.678311-65.583697-13.414847-107.318777-19.377001-162.468705-2.981077 4.471616-8.943231 16.395924-10.43377 10.43377-7.452693-20.86754-4.471616-43.225619-7.452693-64.093158-2.981077 4.471616-8.943231 17.886463-10.43377 13.414847-5.962154-14.905386-2.981077-32.791849-4.471616-49.187773-5.962154 14.905386-10.43377 32.791849-19.377001 46.206696-1.490539 2.981077-5.962154-2.981077-8.943232-5.962155-1.490539 16.395924-16.395924 49.187773-34.282387 49.187773-13.414847 0-32.791849-49.187773-49.187773-73.03639-1.490539 1.490539-4.471616 7.452693-5.962154 5.962155-8.943231-10.43377-13.414847-25.339156-20.86754-37.263465-7.452693 11.924309-16.395924 35.772926-23.848617 34.282387-14.905386-1.490539-38.754003-23.848617-56.640466-35.772925 0 2.981077 1.490539 11.924309-1.490539 11.924308-11.924309-4.471616-20.86754-14.905386-31.30131-22.358078 0 2.981077 2.981077 11.924309 0 10.43377-19.377001-8.943231-35.772926-23.848617-52.16885-35.772926 4.471616 20.86754 11.924309 41.73508 13.414847 62.60262 0 2.981077-5.962154-2.981077-8.943231-4.471616 2.981077 11.924309 8.943231 25.339156 8.943231 37.263465 0 4.471616-7.452693-1.490539-10.43377-2.981078 4.471616 22.358079 14.905386 52.16885 11.924309 67.074236-1.490539 7.452693-26.829694 5.962154-41.73508 8.943232 8.943231 11.924309 20.86754 20.86754 26.829694 34.282387 1.490539 2.981077-4.471616 2.981077-7.452693 4.471616 16.395924 23.848617 55.149927 59.621543 50.678312 73.03639-5.962154 16.395924-43.225619 17.886463-58.131005 13.414847 0 2.981077 4.471616 8.943231 1.490539 10.43377-16.395924 4.471616-32.791849 1.490539-49.187773 1.490538 14.905386 7.452693 32.791849 11.924309 43.225619 22.358079 4.471616 4.471616-10.43377 2.981077-16.395925 4.471616 19.377001 10.43377 40.244541 16.395924 56.640466 31.30131 4.471616 2.981077-8.943231 4.471616-13.414847 5.962154 47.697234 26.829694 99.866084 7.452693 143.091703 78.998544-44.716157 19.377001-138.620087-14.905386-138.620087-11.924308 1.490539 2.981077 14.905386 16.395924 8.943231 17.886463-32.791849 7.452693-67.074236 1.490539-99.866084 2.981077 2.981077 5.962154 13.414847 14.905386 7.452693 19.377001-14.905386 8.943231-35.772926 4.471616-52.16885 7.452693 1.490539 4.471616 5.962154 10.43377 2.981077 11.924309-25.339156 10.43377-53.659389 13.414847-81.979622 20.86754 22.358079 8.943231 44.716157 13.414847 65.583697 25.339156 2.981077 1.490539-1.490539 7.452693-2.981077 11.924308 13.414847 2.981077 29.810771 0 41.73508 8.943232 4.471616 2.981077-5.962154 10.43377-7.452692 16.395924 23.848617 4.471616 52.16885-2.981077 73.03639 11.924309 8.943231 5.962154-8.943231 20.86754-13.414848 31.30131 35.772926 1.490539 71.545852 1.490539 108.809316 2.981077-13.414847 28.320233-26.829694 55.149927-41.73508 83.47016 28.320233-7.452693 56.640466-19.377001 86.451238-23.848617 4.471616 0-2.981077 8.943231-2.981078 11.924308 37.263464-14.905386 84.960699-55.149927 111.790393-44.716157 2.981077 38.754003-16.395924 65.583697-25.339155 99.866084 4.471616 0 11.924309-4.471616 11.924308-1.490538 0 22.358079-8.943231 43.225619-13.414847 65.583697 14.905386-19.377001 25.339156-41.73508 43.225619-59.621543 2.981077-2.981077 4.471616 7.452693 7.452693 10.43377 10.43377-13.414847 14.905386-34.282387 29.810771-40.244541 7.452693-2.981077 7.452693 16.395924 10.43377 23.848617 13.414847-28.320233 20.86754-61.112082 41.73508-83.47016 5.962154-5.962154 13.414847 11.924309 19.377002 17.886463 7.452693-32.791849-1.490539-73.03639 34.282387-122.224163-1.490539-1.490539-2.981077-4.471616-4.471616-5.962155l-128.186317 147.563319 117.752547-153.525473-342.823872-17.886463 336.861718 5.962154-134.148472-190.788937-157.997089-14.905386h149.053858l-125.205241-207.184861 135.639011 198.24163 56.640465-122.224163-44.716157 137.129549 135.63901 189.298398 141.601165-368.163027L640.931587 646.893741l213.147016-56.640466L640.931587 658.818049s1.490539 2.981077 4.471615 7.452693z" fill="#ff7f50" p-id="1841"></path></svg>