<?xml version="1.0" standalone="no"?><!DOCTYPE svg PUBLIC "-//W3C//DTD SVG 1.1//EN" "http://www.w3.org/Graphics/SVG/1.1/DTD/svg11.dtd"><svg t="1543410893257" class="icon" style="" viewBox="0 0 1024 1024" version="1.1" xmlns="http://www.w3.org/2000/svg" p-id="2068" xmlns:xlink="http://www.w3.org/1999/xlink" width="200" height="200"><defs><style type="text/css"></style></defs><path d="M515.117731 882.194954a18.312189 18.312189 0 0 1-10.265474-3.145376L306.14376 744.587838a18.194442 18.194442 0 0 1-1.127298-0.827299c-29.972195-23.803286-54.298687-53.010639-70.882557-86.80807-16.615611-33.872174-25.760955-70.026589-25.760955-107.461884v-334.421425c0-8.781864 6.955253-16.330971 15.581487-17.988641l286.122706-54.944758a19.279761 19.279761 0 0 1 7.097573 0l284.63193 54.944758c8.626234 1.65767 13.729278 9.206777 13.729278 17.988641v335.020398c0 37.254068-7.125218 73.246708-23.585198 106.979634-16.423121 33.659206-39.211736 62.80103-68.936152 86.617627-0.364503 0.290783-0.435151 0.570304-0.82218 0.832419l-196.901339 134.487337c-3.113635 2.124562-6.5672 3.188379-10.173324 3.188379zM327.26549 714.644312l187.808214 127.083622 186.181259-127.06724c25.2142-20.322076 44.236965-45.101125 58.169997-73.65831 13.99856-28.686195 20.276001-59.273745 20.276001-90.912826V230.200138l-267.746012-51.421569-267.746012 51.421569v319.290447c0 31.794711 8.287328 62.520486 22.416945 91.325452 14.069208 28.673909 35.21244 53.508247 60.639608 73.828275z m158.367415-96.879006l187.454973-187.454973c7.153887-7.155935 7.153887-18.75246 0-25.90737-7.152863-7.150815-18.75246-7.150815-25.905322 0L472.680756 578.90681l-89.628874-89.629897c-7.152863-7.150815-18.75246-7.150815-25.905322 0-7.153887 7.155935-7.153887 18.75246 0 25.90737L459.727583 617.765306a18.264066 18.264066 0 0 0 12.952149 5.364136c4.688371 0 9.376742-1.788728 12.953173-5.364136z" fill="#36ab60" p-id="2069"></path></svg>